<svg xmlns="http://www.w3.org/2000/svg" viewBox="0 0 512 512">
  <defs>
    <radialGradient id="bg" cx="50%" cy="35%" r="75%">
      <stop offset="0%" stop-color="#22304a"/><stop offset="100%" stop-color="#0d1219"/>
    </radialGradient>
    <linearGradient id="gold" x1="0" y1="0" x2="0" y2="1">
      <stop offset="0%" stop-color="#ffd977"/><stop offset="55%" stop-color="#f2b430"/><stop offset="100%" stop-color="#c98a12"/>
    </linearGradient>
  </defs>
  <rect x="16" y="16" width="480" height="480" rx="96" fill="url(#bg)" stroke="#f2b430" stroke-width="10"/>
  <path d="M256 72 L416 122 Q416 300 256 440 Q96 300 96 122 Z" fill="#1b2433" stroke="url(#gold)" stroke-width="16"/>
  <path d="M256 104 L384 144 Q384 288 256 400 Q128 288 128 144 Z" fill="none" stroke="#f2b430" stroke-width="4" opacity=".4"/>
  <g transform="translate(61.44 57.12) scale(0.76)">
    <path d="M150 170 L196 170 L214 300 L242 200 L270 200 L298 300 L316 170 L362 170 L330 356 L282 356 L256 268 L230 356 L182 356 Z"
      fill="url(#gold)" stroke="#7d5406" stroke-width="8"/>
  </g>
  <path d="M234 132 L278 132 L278 112 L256 101 L234 112 Z" fill="#3fe0a3" stroke="#0f7a54" stroke-width="6"/>
</svg>
